<svg xmlns="http://www.w3.org/2000/svg" viewBox="0 0 64 64" fill="none">
  <path
    d="M32 55.5C28.7 52.9 9.5 39 9.5 23.8C9.5 16.5 15.3 11 22.4 11C25.9 11 29.2 12.4 31.4 15C31.6 15.3 31.8 15.5 32 15.8C32.2 15.5 32.4 15.3 32.6 15C34.8 12.4 38.1 11 41.6 11C48.7 11 54.5 16.5 54.5 23.8C54.5 39 35.3 52.9 32 55.5Z"
    fill="#B44357"
  />
  <path
    d="M32 49.8C29.6 47.9 15.6 37.8 15.6 26.7C15.6 21.5 19.8 17.5 24.8 17.5C27.2 17.5 29.6 18.5 31.1 20.2C31.4 20.5 31.7 20.9 32 21.3C32.3 20.9 32.6 20.5 32.9 20.2C34.4 18.5 36.8 17.5 39.2 17.5C44.2 17.5 48.4 21.5 48.4 26.7C48.4 37.8 34.4 47.9 32 49.8Z"
    fill="#D97B89"
    fill-opacity="0.35"
  />
</svg>
